# xmcd
# 
# Track frame offsets:
#     182
#     11755
#     25947
#     49015
#     62237
#     78270
#     97365
#     108302
#     122045
#     136442
#     158197
#     175670
#     184297
#     200747
#     212885
# 
# Disc length: 2990
# 
# Revision: 4
# Processed by: cddbd v1.5.2PL0 Copyright (c) Steve Scherf et al.
# Submitted via: fre:ac v1.0.17
# 
DISCID=da0bac0f
DTITLE=Jean-Jacques Milteau - Blues Harp
DYEAR=1983
DGENRE=Blues
TTITLE0=The Hook
TTITLE1=Antoine et Stéphane
TTITLE2=U
TTITLE3=True Duke
TTITLE4=Woodbound
TTITLE5=Tommy
TTITLE6=Special
TTITLE7=12 Bars
TTITLE8=Going Back To NYC
TTITLE9=Cheaters
TTITLE10=No More
TTITLE11=Louisiana Vamper
TTITLE12=Blues Harp
TTITLE13=Rice Miller
TTITLE14=AA Booghee
EXTD=YEAR: 1983 ID3G:   0
EXTT0=
EXTT1=
EXTT2=
EXTT3=
EXTT4=
EXTT5=
EXTT6=
EXTT7=
EXTT8=
EXTT9=
EXTT10=
EXTT11=
EXTT12=
EXTT13=
EXTT14=
PLAYORDER=
